<svg xmlns="http://www.w3.org/2000/svg" viewBox="0 0 1156.99 329.8"><style type="text/css">
                                        #layer_char{fill:#ffffff;}</style><g  data-name="Layer 2"><g id="Layer_1-2" data-name="Layer 1"><path id="Layer_char" d="M240.1,17.5q16.4,11.9,23.6,32.7h-9.4a53.92,53.92,0,0,0-20.2-26.3Q219.9,14,198.9,14A55.33,55.33,0,0,0,170,21.7a54.15,54.15,0,0,0-20.4,22.1q-7.5,14.4-7.5,33.8,0,19.2,7.5,33.6A54.15,54.15,0,0,0,170,133.3a55.33,55.33,0,0,0,28.9,7.7q21,0,35.2-9.9A54,54,0,0,0,254.3,105h9.4q-7.2,20.81-23.6,32.6t-41.2,11.8q-19.2,0-34.3-9.1a62.14,62.14,0,0,1-23.5-25.5q-8.4-16.39-8.4-37.2t8.4-37.2a62.78,62.78,0,0,1,23.5-25.6q15.09-9.19,34.3-9.2Q223.7,5.6,240.1,17.5Z"/><path d="M362.7,49.2q12,12,12,35.4V148h-9V85q0-19.6-9.8-29.9T329.1,44.8q-17.61,0-28.3,11.5T290.1,90.2V148h-9V0h9V68q4-15.2,15.3-23a44.8,44.8,0,0,1,26.1-7.8Q350.7,37.2,362.7,49.2Z"/><path d="M472.5,47.3a46.12,46.12,0,0,1,16.6,24.5V39.4h9V148h-9V115.6a46.12,46.12,0,0,1-16.6,24.5q-12.21,9.3-30,9.3-15.21,0-26.9-6.7a46.4,46.4,0,0,1-18.3-19.4q-6.6-12.7-6.6-29.7T397.3,64a46.56,46.56,0,0,1,18.3-19.3Q427.3,38,442.5,38,460.29,38,472.5,47.3ZM412,58.8Q399.9,71.6,399.9,93.6q0,22.2,12,35t32.6,12.8a45.13,45.13,0,0,0,23-5.9,40.69,40.69,0,0,0,15.9-16.8q5.7-10.9,5.7-25.1t-5.7-25a40.86,40.86,0,0,0-15.9-16.7,45.13,45.13,0,0,0-23-5.9Q424.1,46,412,58.8Z"/><path d="M544.1,43.9q10.59-6.7,27-6.7V47h-3q-16.41,0-27.6,9.2T529.3,86v62h-9V39.4h9v24A35.2,35.2,0,0,1,544.1,43.9Z"/><path d="M657.69,47.3a46,46,0,0,1,16.6,24.5V39.4h9V148h-9V115.6a46,46,0,0,1-16.6,24.5q-12.2,9.3-30,9.3-15.2,0-26.9-6.7a46.4,46.4,0,0,1-18.3-19.4q-6.6-12.7-6.6-29.7t6.6-29.6a46.56,46.56,0,0,1,18.3-19.3q11.7-6.71,26.9-6.7Q645.49,38,657.69,47.3Zm-60.5,11.5q-12.09,12.8-12.1,34.8,0,22.2,12,35t32.6,12.8a45.11,45.11,0,0,0,23-5.9,40.69,40.69,0,0,0,15.9-16.8q5.7-10.9,5.7-25.1t-5.7-25a40.86,40.86,0,0,0-15.9-16.7,45.11,45.11,0,0,0-23-5.9Q609.29,46,597.19,58.8Z"/><path d="M787.09,48.7Q800.48,59.4,803.49,77h-9.4a34.46,34.46,0,0,0-13.6-22.8q-11.21-8.4-27.6-8.4a45.3,45.3,0,0,0-21.6,5.2,38.92,38.92,0,0,0-15.8,16q-6,10.8-6,26.6t6,26.6a38.92,38.92,0,0,0,15.8,16,45.3,45.3,0,0,0,21.6,5.2q16.4,0,27.6-8.4a34.46,34.46,0,0,0,13.6-22.8h9.4q-3,17.8-16.4,28.5t-34,10.7q-15.4,0-27.3-6.7a47.47,47.47,0,0,1-18.7-19.3q-6.8-12.6-6.8-29.8,0-17,6.8-29.6a47.47,47.47,0,0,1,18.7-19.3Q737.7,38,753.09,38,773.69,38,787.09,48.7Z"/><path d="M834.49,47.6v69.8q0,13,4.6,17.7t16.2,4.7h11.4V148h-12.4q-15,0-21.9-7t-6.9-23.6V47.6h-17.2V39.4h17.2V11.8h9V39.4h32.2v8.2Z"/><path d="M955.49,133.5q11.21-8.3,13.6-22.7h9.4a44.12,44.12,0,0,1-16.3,28q-13.31,10.6-33.9,10.6-15.4,0-27.3-6.7a47.47,47.47,0,0,1-18.7-19.3q-6.79-12.6-6.8-29.8,0-17,6.8-29.6A47.47,47.47,0,0,1,901,44.7Q912.89,38,928.29,38q15.8,0,27.3,6.7A45,45,0,0,1,973,62.3a48.25,48.25,0,0,1,5.9,23.3,60.08,60.08,0,0,1-1,10.6h-93.4q.19,15.19,6.3,25.5a38.34,38.34,0,0,0,15.8,15.2,46.54,46.54,0,0,0,21.3,4.9Q944.29,141.8,955.49,133.5Zm-48.8-83.1a39,39,0,0,0-15.9,15.2q-6.1,10.2-6.3,25.2h85.6q.79-15-5-25.3a36.47,36.47,0,0,0-15.6-15.2,48.73,48.73,0,0,0-42.8.1Z"/><path d="M1019.89,43.9q10.59-6.7,27-6.7V47h-3q-16.41,0-27.6,9.2T1005.09,86v62h-9V39.4h9v24A35.2,35.2,0,0,1,1019.89,43.9Z"/><path d="M97.8,243.2h-53L36,269H0L51.8,128.6H91.2L143,269H106.6Zm-8.8-26-17.6-52-17.8,52Z"/><path d="M267.5,169q11.29,12.8,11.3,35.2V269H244.6V208.2q0-11.2-5.9-17.5T223,184.4q-10.41,0-16.5,6.6t-6.1,18.8V269H166.2V157.4h34.2v20.4A36.77,36.77,0,0,1,214.7,162q9.5-5.81,22.3-5.8Q256.2,156.2,267.5,169Z"/><path d="M313.8,113.1q5.59-5.1,14.8-5.1t14.8,5.1A16.7,16.7,0,0,1,349,126a16.48,16.48,0,0,1-5.6,12.7q-5.61,5.1-14.8,5.1t-14.8-5.1a16.45,16.45,0,0,1-5.6-12.7A16.67,16.67,0,0,1,313.8,113.1Zm31.8,44.3V269H311.4V157.4Z"/><path d="M556.2,168.9Q568,181.61,568,204.2V269H534V208.2q0-10.6-5.69-16.5t-15.5-5.9q-10.21,0-16.1,6.3t-5.9,17.7V269H456.6V208.2q0-10.6-5.6-16.5t-15.4-5.9q-10.2,0-16.2,6.2t-6,17.8V269H379.2V157.4h34.2v19a33.24,33.24,0,0,1,13.5-14.8q9.09-5.4,21.3-5.4a43,43,0,0,1,22.6,5.9A37.12,37.12,0,0,1,485.6,179a44.65,44.65,0,0,1,15.89-16.6,41.86,41.86,0,0,1,22.31-6.2Q544.4,156.2,556.2,168.9Z"/><path d="M665.2,161.8a34.93,34.93,0,0,1,13.6,15.8V157.4h34V269h-34V248.8a34.93,34.93,0,0,1-13.6,15.8q-9.21,5.81-22,5.8a45.18,45.18,0,0,1-24.7-6.9q-10.9-6.9-17.2-19.9T595,213.2q0-17.59,6.3-30.5a47.3,47.3,0,0,1,17.2-19.8,45.18,45.18,0,0,1,24.7-6.9Q656,156,665.2,161.8Zm-28.7,31.4q-6.71,7.2-6.7,20t6.7,20q6.69,7.2,17.7,7.2,10.8,0,17.7-7.4t6.9-19.8q0-12.6-6.9-19.9T654.2,186Q643.19,186,636.5,193.2Z"/><path d="M798.33,246.78v23.28h-13q-16.51,0-25.71-7.68T750.44,237V204.5H737.79V181.69h12.65V160h28.83v21.69h18.89V204.5H779.27v32.94q0,5.22,2.28,7.28c1.52,1.37,4.07,2.06,7.67,2.06Z"/><path d="M841.19,299.1q5.59-5.1,14.8-5.1t14.8,5.1a16.7,16.7,0,0,1,5.6,12.9,16.48,16.48,0,0,1-5.6,12.7q-5.6,5.1-14.8,5.1t-14.8-5.1a16.48,16.48,0,0,1-5.6-12.7A16.7,16.7,0,0,1,841.19,299.1ZM873,157.4V269h-34.2V157.4Z"/><path d="M988.49,162.9a50.58,50.58,0,0,1,20.6,19.9q7.5,13,7.5,30.4t-7.5,30.4a50.58,50.58,0,0,1-20.6,19.9,67.58,67.58,0,0,1-59.5,0,50.41,50.41,0,0,1-20.7-19.9q-7.5-13-7.5-30.4t7.5-30.4A50.41,50.41,0,0,1,929,162.9a67.58,67.58,0,0,1,59.5,0Zm-46.2,29.8q-6.7,7.1-6.7,20.5t6.7,20.4a21.91,21.91,0,0,0,16.5,7,21.62,21.62,0,0,0,16.4-7q6.6-7,6.6-20.4t-6.6-20.5a21.5,21.5,0,0,0-16.4-7.1A21.78,21.78,0,0,0,942.29,192.7Z"/><path d="M1145.69,169q11.3,12.8,11.3,35.2V269h-34.2V208.2q0-11.2-5.9-17.5t-15.7-6.3q-10.41,0-16.5,6.6t-6.1,18.8V269h-34.2V157.4h34.2v20.4a36.77,36.77,0,0,1,14.3-15.8q9.49-5.81,22.3-5.8Q1134.39,156.2,1145.69,169Z"/></g></g></svg>