<svg xmlns="http://www.w3.org/2000/svg" viewBox="0 0 919.99 305.2"><title>exp</title><g id="Layer_2" data-name="Layer 2"><g id="Layer_1-2" data-name="Layer 1"><path d="M9,15.4V74.6H66v7.2H9v59.4H72v7.6H0V7.8H72v7.6Z"/><path d="M167.2,148.8l-31.6-48-30.2,48h-10l35.2-55.6-34.8-53h10.4l30.6,46.4,29.8-46.4h10l-34.8,54,35.8,54.6Z"/><path d="M289.7,45.5A46.56,46.56,0,0,1,308,64.8q6.6,12.6,6.6,29.6T308,124.1a46.4,46.4,0,0,1-18.3,19.4q-11.7,6.7-26.9,6.7-17.61,0-29.9-9.3a45.85,45.85,0,0,1-16.7-24.5V200h-8.8V40.2h8.8V72.6a45.85,45.85,0,0,1,16.7-24.5q12.3-9.3,29.9-9.3Q278,38.8,289.7,45.5ZM238,52.7a41.48,41.48,0,0,0-16,16.7q-5.81,10.8-5.8,25t5.8,25.1a41.3,41.3,0,0,0,16,16.8,45.11,45.11,0,0,0,23,5.9q20.4,0,32.5-12.8t12.1-35q0-22-12.1-34.8T261,46.8A45.11,45.11,0,0,0,238,52.7Z"/><path d="M360.8.8v148h-9V.8Z"/><path d="M479.8,48.1a46.12,46.12,0,0,1,16.6,24.5V40.2h9V148.8h-9V116.4a46.12,46.12,0,0,1-16.6,24.5q-12.21,9.3-30,9.3-15.21,0-26.9-6.7a46.42,46.42,0,0,1-18.31-19.4Q398,111.4,398,94.4t6.59-29.6A46.58,46.58,0,0,1,422.9,45.5q11.7-6.7,26.9-6.7Q467.59,38.8,479.8,48.1ZM419.3,59.6Q407.2,72.4,407.2,94.4q0,22.2,12,35t32.6,12.8a45.13,45.13,0,0,0,23-5.9,40.75,40.75,0,0,0,15.9-16.8q5.7-10.9,5.7-25.1t-5.7-25a40.92,40.92,0,0,0-15.9-16.7,45.13,45.13,0,0,0-23-5.9Q431.4,46.8,419.3,59.6Z"/><path d="M546.5,2.1A7.43,7.43,0,0,1,552,0a7.8,7.8,0,0,1,5.6,2.1,7,7,0,0,1,2.2,5.3,7.28,7.28,0,0,1-2.2,5.5A7.8,7.8,0,0,1,552,15a7.43,7.43,0,0,1-5.5-2.1,7.43,7.43,0,0,1-2.1-5.5A7.19,7.19,0,0,1,546.5,2.1Zm10.1,38.1V148.8h-9V40.2Z"/><path d="M680.59,50q12,12,12,35.4v63.4h-9v-63q0-19.6-9.8-29.9T647,45.6q-17.6,0-28.3,11.5T608,91v57.8h-9V40.2h9V68.8q4-15.19,15.3-23a44.8,44.8,0,0,1,26.1-7.8Q668.59,38,680.59,50Z"/><path d="M808.59,134.3q11.2-8.3,13.6-22.7h9.4a44.12,44.12,0,0,1-16.3,28q-13.31,10.6-33.9,10.6-15.4,0-27.3-6.7a47.47,47.47,0,0,1-18.7-19.3q-6.79-12.6-6.8-29.8,0-17,6.8-29.6a47.47,47.47,0,0,1,18.7-19.3q11.89-6.7,27.3-6.7,15.79,0,27.3,6.7a45,45,0,0,1,17.4,17.6A48.25,48.25,0,0,1,832,86.4,60.08,60.08,0,0,1,831,97h-93.4q.2,15.19,6.3,25.5a38.4,38.4,0,0,0,15.8,15.2,46.54,46.54,0,0,0,21.3,4.9Q797.39,142.6,808.59,134.3Zm-48.8-83.1a39.1,39.1,0,0,0-15.9,15.2q-6.1,10.2-6.3,25.2h85.6q.79-15-5-25.3a36.47,36.47,0,0,0-15.6-15.2,48.73,48.73,0,0,0-42.8.1Z"/><path d="M893,44.7Q903.59,38,920,38v9.8h-3q-16.4,0-27.6,9.2t-11.2,29.8v62h-9V40.2h9v24A35.2,35.2,0,0,1,893,44.7Z"/><path d="M175.3,162.6l37.8,111.8,38-111.8h30.2l-50,141.2H195.1l-50-141.2Z"/><path d="M308.09,150.1q4.8-4.31,12.6-4.3t12.6,4.3a14.23,14.23,0,0,1,4.8,11.1,14,14,0,0,1-4.8,10.9q-4.8,4.31-12.6,4.3t-12.6-4.3a14,14,0,0,1-4.8-10.9A14.23,14.23,0,0,1,308.09,150.1Zm26.6,42.9V303.8h-28.2V193Z"/><path d="M437.59,198.2a37.22,37.22,0,0,1,14.3,17.8V155.8h28v148h-28V280.6a37.8,37.8,0,0,1-14.3,17.9q-9.9,6.71-23.9,6.7a47.64,47.64,0,0,1-25.2-6.8A45.9,45.9,0,0,1,371,278.7q-6.3-12.9-6.3-30.3t6.3-30.3a45.9,45.9,0,0,1,17.5-19.7,47.64,47.64,0,0,1,25.2-6.8Q427.68,191.6,437.59,198.2Zm-36.3,26.6q-8,8.59-8,23.6t8,23.5q8,8.5,21.2,8.5,12.79,0,21.1-8.7t8.3-23.3q0-14.81-8.3-23.5t-21.1-8.7Q409.29,216.2,401.29,224.8Z"/><path d="M618.69,253.8h-81.2q.6,14.81,8,21.8t18.4,7q9.79,0,16.3-4.8a21.27,21.27,0,0,0,8.3-13h29.8a47.71,47.71,0,0,1-9.4,20.8,49.21,49.21,0,0,1-18.5,14.4,59.27,59.27,0,0,1-25.1,5.2q-16.2,0-28.8-6.9a48.54,48.54,0,0,1-19.6-19.7q-7-12.8-7-30.2t7-30.3a47.71,47.71,0,0,1,19.6-19.7q12.6-6.79,28.8-6.8,16.4,0,28.7,6.8a48,48,0,0,1,19,18.7,54.24,54.24,0,0,1,6.7,27.1A53.09,53.09,0,0,1,618.69,253.8Zm-34.5-33a27,27,0,0,0-18.9-7q-11.4,0-19.2,7t-8.6,20.6h53.8Q591.89,227.8,584.19,220.8Z"/><path d="M730,198.4a49.73,49.73,0,0,1,20.3,19.7q7.4,12.9,7.4,30.3t-7.4,30.2A50.62,50.62,0,0,1,730,298.3a64.81,64.81,0,0,1-58.2,0,50.62,50.62,0,0,1-20.3-19.7q-7.4-12.8-7.4-30.2t7.4-30.3a49.73,49.73,0,0,1,20.3-19.7,65.67,65.67,0,0,1,58.2,0Zm-49.1,25.9q-8.21,8.3-8.2,24.1t8.2,24.1a28.25,28.25,0,0,0,40,0q8.21-8.29,8.2-24.1t-8.2-24.1a28.25,28.25,0,0,0-40,0Z"/></g></g></svg>