<svg xmlns="http://www.w3.org/2000/svg" viewBox="0 0 633.69 76.6"><title>log-m</title><g id="Layer_2" data-name="Layer 2"><g id="Layer_1-2" data-name="Layer 1"><path d="M38.3,5.1v5.7H7.1V37.7h27v5.5H7.1V75.6H0V5.1Z"/><path d="M50.1,1.6v74H43V1.6Z"/><path d="M97.35,23.65a24,24,0,0,1,9.65,9.7,30.53,30.53,0,0,1,3.5,14.95A30.25,30.25,0,0,1,107,63.2a24.41,24.41,0,0,1-9.65,9.7A28.31,28.31,0,0,1,83.4,76.3a28.59,28.59,0,0,1-14-3.4,24.46,24.46,0,0,1-9.75-9.75A29.88,29.88,0,0,1,56.1,48.3a30.11,30.11,0,0,1,3.55-14.95,24.09,24.09,0,0,1,9.75-9.7,29,29,0,0,1,14-3.35A28.72,28.72,0,0,1,97.35,23.65ZM73.4,28.8A18,18,0,0,0,66,36.15,24.31,24.31,0,0,0,63.2,48.3,24,24,0,0,0,66,60.4a18,18,0,0,0,7.4,7.3,21.27,21.27,0,0,0,10,2.4,20.82,20.82,0,0,0,9.85-2.4,18.23,18.23,0,0,0,7.35-7.3,24.14,24.14,0,0,0,2.8-12.1,24.42,24.42,0,0,0-2.8-12.15,18.17,18.17,0,0,0-7.35-7.35,20.82,20.82,0,0,0-9.85-2.4A21.27,21.27,0,0,0,73.4,28.8Z"/><path d="M131.3,23.2A24.54,24.54,0,0,1,144.2,20v7.6h-2.3q-7.91,0-13.1,4.25T123.6,45.7V75.6h-7.1V21h7.1V32.3A18.41,18.41,0,0,1,131.3,23.2Z"/><path d="M183.1,66.8a14.89,14.89,0,0,0,6-10h7.4a22.24,22.24,0,0,1-8.3,14.1q-6.81,5.4-17.2,5.4A28.14,28.14,0,0,1,157.15,73a23.39,23.39,0,0,1-9.45-9.7,31.19,31.19,0,0,1-3.4-15,31.19,31.19,0,0,1,3.4-14.95,23.39,23.39,0,0,1,9.45-9.7A28.14,28.14,0,0,1,171,20.3a27.45,27.45,0,0,1,13.85,3.35,22.79,22.79,0,0,1,8.9,9,25.12,25.12,0,0,1,3.05,12.2,30.51,30.51,0,0,1-.4,5.1H151.2a22.9,22.9,0,0,0,2.85,11.55,17.16,17.16,0,0,0,7.15,6.85,20.89,20.89,0,0,0,9.5,2.2A20.27,20.27,0,0,0,183.1,66.8ZM161.3,28.2A17.34,17.34,0,0,0,154.15,35a22.84,22.84,0,0,0-3,11.35h38.6A20.23,20.23,0,0,0,187.6,35a16.42,16.42,0,0,0-7-6.8,22.26,22.26,0,0,0-19.3,0Z"/><path d="M245.55,26.05q5.94,6,5.95,17.75V75.6h-6.9V44.3q0-8.89-4.5-13.65T227.8,25.9q-8.2,0-13.05,5.25T209.9,46.6v29h-7.1V21h7.1V34.4a19,19,0,0,1,7.6-10.7A22,22,0,0,1,230.1,20Q239.6,20,245.55,26.05Z"/><path d="M301.05,25.8a22.82,22.82,0,0,1,8.35,14.6h-7.3A15.59,15.59,0,0,0,296,30.15a19.94,19.94,0,0,0-12.3-3.75A20.17,20.17,0,0,0,274,28.8a17.34,17.34,0,0,0-7.1,7.35A25.44,25.44,0,0,0,264.2,48.3a25.44,25.44,0,0,0,2.65,12.15A17.34,17.34,0,0,0,274,67.8a20.17,20.17,0,0,0,9.75,2.4A19.94,19.94,0,0,0,296,66.45a15.59,15.59,0,0,0,6.1-10.25h7.3a22.82,22.82,0,0,1-8.35,14.6q-6.85,5.51-17.25,5.5A28.14,28.14,0,0,1,270,73a23.39,23.39,0,0,1-9.45-9.7,31.19,31.19,0,0,1-3.4-15,31.19,31.19,0,0,1,3.4-14.95,23.39,23.39,0,0,1,9.45-9.7A28.14,28.14,0,0,1,283.8,20.3Q294.2,20.3,301.05,25.8Z"/><path d="M315.25,1.3A5.37,5.37,0,0,1,319,0a5.22,5.22,0,0,1,3.7,1.3,4.56,4.56,0,0,1,1.4,3.5,4.44,4.44,0,0,1-1.4,3.4A5.22,5.22,0,0,1,319,9.5a5.37,5.37,0,0,1-3.75-1.3,4.34,4.34,0,0,1-1.45-3.4A4.46,4.46,0,0,1,315.25,1.3ZM322.5,21V75.6h-7.1V21Z"/><path d="M368.24,24.6A21.69,21.69,0,0,1,376.29,36V21h6.9V75.6h-6.9v-15A21.69,21.69,0,0,1,368.24,72a23.2,23.2,0,0,1-14.15,4.3,25.86,25.86,0,0,1-13.25-3.4,23.27,23.27,0,0,1-9.1-9.75,32.24,32.24,0,0,1-3.25-14.85,32.5,32.5,0,0,1,3.25-14.95,23,23,0,0,1,9.05-9.7,26.15,26.15,0,0,1,13.3-3.35A23.2,23.2,0,0,1,368.24,24.6Zm-27.09,7.75q-5.56,5.85-5.56,15.95t5.56,16q5.53,5.85,14.75,5.85a20.41,20.41,0,0,0,10.44-2.7,19.05,19.05,0,0,0,7.31-7.65,24,24,0,0,0,2.64-11.45,24,24,0,0,0-2.64-11.45,19.05,19.05,0,0,0-7.31-7.65,20.41,20.41,0,0,0-10.44-2.7Q346.69,26.5,341.15,32.35Z"/><path d="M460.09,6.6v69h-7V17.8l-23.9,57.8h-6.3l-24-57.6V75.6h-7.1V6.6h8.3l26,60.3,25.8-60.3Z"/><path d="M515.89,21V75.6h-7V62.1a19,19,0,0,1-7.6,10.8,22,22,0,0,1-12.6,3.7q-9.6,0-15.55-6T467.19,52.8V21h7V52.2q0,9,4.5,13.75T491,70.7q8.2,0,13.05-5.25T508.89,50V21Z"/><path d="M539.39,23.2a24.59,24.59,0,0,1,12.9-3.2v7.6H550a20.06,20.06,0,0,0-13.1,4.25q-5.19,4.24-5.2,13.85V75.6h-7.1V21h7.1V32.3A18.46,18.46,0,0,1,539.39,23.2Z"/><path d="M554.84,1.3A5.4,5.4,0,0,1,558.59,0a5.21,5.21,0,0,1,3.7,1.3,4.52,4.52,0,0,1,1.4,3.5,4.41,4.41,0,0,1-1.4,3.4,5.21,5.21,0,0,1-3.7,1.3,5.4,5.4,0,0,1-3.75-1.3,4.34,4.34,0,0,1-1.45-3.4A4.46,4.46,0,0,1,554.84,1.3ZM562.09,21V75.6H555V21Z"/><path d="M606.89,66.8a14.89,14.89,0,0,0,6-10h7.4A22.24,22.24,0,0,1,612,70.9q-6.79,5.4-17.2,5.4A28.14,28.14,0,0,1,580.94,73a23.51,23.51,0,0,1-9.45-9.7,31.19,31.19,0,0,1-3.4-15,31.19,31.19,0,0,1,3.4-14.95,23.51,23.51,0,0,1,9.45-9.7,28.14,28.14,0,0,1,13.85-3.35,27.45,27.45,0,0,1,13.85,3.35,22.72,22.72,0,0,1,8.9,9,25.12,25.12,0,0,1,3.05,12.2,29.49,29.49,0,0,1-.4,5.1H575a23.1,23.1,0,0,0,2.85,11.55A17.22,17.22,0,0,0,585,68.3a20.89,20.89,0,0,0,9.5,2.2A20.25,20.25,0,0,0,606.89,66.8Zm-21.8-38.6A17.4,17.4,0,0,0,577.94,35a23,23,0,0,0-3,11.35h38.6a20.14,20.14,0,0,0-2.2-11.3,16.37,16.37,0,0,0-7-6.8,21.1,21.1,0,0,0-9.6-2.2A21.34,21.34,0,0,0,585.09,28.2Z"/><path d="M633.69,1.6v74h-7.1V1.6Z"/></g></g></svg>