<svg xmlns="http://www.w3.org/2000/svg" viewBox="0 0 635.99 359.8"><title>log</title><g id="Layer_2" data-name="Layer 2"><g id="Layer_1-2" data-name="Layer 1"><path d="M31.8,137.2h54v3.6h-58V0h4Z"/><path d="M184.2,38.1A47.5,47.5,0,0,1,203,57.3q6.8,12.49,6.8,29.5T203,116.3a47.5,47.5,0,0,1-18.8,19.2,54.39,54.39,0,0,1-27,6.7,54.39,54.39,0,0,1-27-6.7,48.11,48.11,0,0,1-18.9-19.2q-6.9-12.49-6.9-29.5t6.9-29.5a48.11,48.11,0,0,1,18.9-19.2,54.39,54.39,0,0,1,27-6.7A54.39,54.39,0,0,1,184.2,38.1Zm-51.1,2.6a43.56,43.56,0,0,0-17.9,17.4q-6.81,11.7-6.8,28.7t6.8,28.7a43.56,43.56,0,0,0,17.9,17.4,52,52,0,0,0,24.1,5.7,51.42,51.42,0,0,0,24-5.7A44,44,0,0,0,199,115.6q6.8-11.59,6.8-28.8T199,58a44,44,0,0,0-17.8-17.3,51.42,51.42,0,0,0-24-5.7A52,52,0,0,0,133.1,40.7Z"/><path d="M453,38.1a47.43,47.43,0,0,1,18.8,19.2q6.79,12.49,6.8,29.5t-6.8,29.5A47.43,47.43,0,0,1,453,135.5a57.75,57.75,0,0,1-54,0,48.11,48.11,0,0,1-18.9-19.2q-6.9-12.49-6.9-29.5t6.9-29.5A48.11,48.11,0,0,1,399,38.1a57.75,57.75,0,0,1,54,0Zm-51.1,2.6A43.56,43.56,0,0,0,384,58.1q-6.8,11.7-6.8,28.7t6.8,28.7a43.56,43.56,0,0,0,17.9,17.4,52,52,0,0,0,24.1,5.7,51.36,51.36,0,0,0,24-5.7,43.93,43.93,0,0,0,17.8-17.3q6.79-11.59,6.8-28.8T467.79,58A43.93,43.93,0,0,0,450,40.7,51.36,51.36,0,0,0,426,35,52,52,0,0,0,401.89,40.7Z"/><path d="M121,273.3a64.45,64.45,0,0,1-25.6,25.3q-16.61,9.19-39,9.2H0V166.2H56.4q22.4,0,39.1,8.9A61.84,61.84,0,0,1,121.1,200q8.9,16,8.9,36.6T121,273.3ZM80.2,263.2q10-9.4,10-26.6,0-17-10-26.5t-27.4-9.5H39.4v72H52.8Q70.2,272.6,80.2,263.2Z"/><path d="M242,258.8H167.8q1,19,16.6,19A15.76,15.76,0,0,0,194,275a14.07,14.07,0,0,0,5.2-7.4h41.6a47.66,47.66,0,0,1-9.8,21.3,52.68,52.68,0,0,1-19.2,14.9,59.46,59.46,0,0,1-25.4,5.4q-16.8,0-29.7-6.9a48.84,48.84,0,0,1-20.1-20q-7.2-13.1-7.2-30.7t7.2-30.6a48.78,48.78,0,0,1,20.2-19.9q13-6.9,29.6-6.9,16.8,0,29.6,6.8a48.55,48.55,0,0,1,19.9,19.4Q243,233,243,249.6A47.67,47.67,0,0,1,242,258.8Zm-43.6-29.4a17.1,17.1,0,0,0-12-4.4q-7.8,0-12.7,4.4t-5.7,13h35Q203.2,233.8,198.4,229.4Z"/><path d="M324.4,205q13.2,10.8,16.6,28.6H304.2a14.53,14.53,0,0,0-5.7-9,17.91,17.91,0,0,0-10.5-3q-4.41,0-6.7,1.9a6.48,6.48,0,0,0-2.3,5.3q0,4.2,4.9,6.3a105.11,105.11,0,0,0,16.1,4.7,156.35,156.35,0,0,1,21.5,6,36.63,36.63,0,0,1,14.8,10.4q6.3,7.2,6.3,19.4a29.3,29.3,0,0,1-5.4,17.4q-5.4,7.61-15.7,11.9t-24.3,4.3q-23.61,0-37.6-10.2t-17-29.2h37.8q.8,6.19,5.3,9.2a19.93,19.93,0,0,0,11.3,3c3.06,0,5.4-.67,7-2a6.45,6.45,0,0,0,2.4-5.2q0-4.8-5.1-7T285,263.4a137.91,137.91,0,0,1-21-5.7,35.76,35.76,0,0,1-14.3-10q-6.1-6.9-6.1-19.1a30.5,30.5,0,0,1,11.8-24.8q11.79-9.6,33.6-9.6Q311.2,194.2,324.4,205Z"/><path d="M350.6,150.1q6.39-5.7,16.8-5.7t16.6,5.7a18.83,18.83,0,0,1,6.19,14.5,17.94,17.94,0,0,1-6.29,14q-6.31,5.6-16.5,5.6-10.41,0-16.8-5.6a17.83,17.83,0,0,1-6.41-14A18.55,18.55,0,0,1,350.6,150.1Zm36.2,45.5V307.8H347.4V195.6Z"/><path d="M458.3,196.3a31.42,31.42,0,0,1,12.9,14.1V192.6h39.2v111a65.44,65.44,0,0,1-6,28.3,46.63,46.63,0,0,1-18.6,20.3q-12.6,7.6-31.8,7.6-26.21,0-41.7-12.2t-18.1-33.4h38.6a13.87,13.87,0,0,0,6,8.6q4.59,3,12.4,3,20,0,20-22.2V287a31.42,31.42,0,0,1-12.9,14.1q-8.7,5.1-20.5,5.1a44,44,0,0,1-24.2-6.9q-10.8-6.9-17-20t-6.2-30.7q0-17.59,6.2-30.6t17-19.9a44,44,0,0,1,24.2-6.9Q449.59,191.2,458.3,196.3Zm-22.4,35.4q-5.7,6.11-5.7,16.9,0,11,5.7,17.1t14.9,6.1a19.17,19.17,0,0,0,14.6-6.2q5.79-6.19,5.8-17,0-10.6-5.8-16.8a19.17,19.17,0,0,0-14.6-6.2Q441.59,225.6,435.9,231.7Z"/><path d="M625,207.5q11,12.9,11,35.1v65.2H597V247.6q0-9.79-5.1-15.3t-13.7-5.5q-8.81,0-14,5.7T559,248.2v59.6h-39.4V195.6H559v18.8A36.33,36.33,0,0,1,573,200q9.19-5.4,21.6-5.4Q614,194.6,625,207.5Z"/><path d="M320.49,33.4a48.2,48.2,0,0,1,17.3,26.2V24.8h3.8v112q0,15-6.6,26.1a44.37,44.37,0,0,1-17.5,16.9,49.59,49.59,0,0,1-23.7,5.8q-19.59,0-32.5-9.5a47.78,47.78,0,0,1-17.7-25.7h4a44.09,44.09,0,0,0,16.3,23.1q11.7,8.5,29.9,8.5a45.08,45.08,0,0,0,22.4-5.6A40.81,40.81,0,0,0,332,160.6q5.81-10.2,5.8-23.8V98a48.2,48.2,0,0,1-17.3,26.2q-12.9,10-31.5,10a55.23,55.23,0,0,1-27.4-6.7A46.17,46.17,0,0,1,243,108.3q-6.6-12.49-6.6-29.5T243,49.3a46.17,46.17,0,0,1,18.6-19.2A55.23,55.23,0,0,1,289,23.4Q307.59,23.4,320.49,33.4Zm-57.2-.2a42.16,42.16,0,0,0-16.9,17.9q-6,11.7-6,27.7t6,27.7a42.16,42.16,0,0,0,16.9,17.9q10.9,6.19,25.7,6.2a48.75,48.75,0,0,0,25.1-6.5,45.74,45.74,0,0,0,17.4-18.2q6.3-11.7,6.3-27.1t-6.3-27.1a45.74,45.74,0,0,0-17.4-18.2A48.75,48.75,0,0,0,289,27Q274.2,27,263.29,33.2Z"/></g></g></svg>