<svg xmlns="http://www.w3.org/2000/svg" viewBox="0 0 835.79 377.6"><title>motion</title><g id="Layer_2" data-name="Layer 2"><g id="Layer_1-2" data-name="Layer 1"><path d="M207.7,0V137.4h-9V15.8L146.3,137.4h-8.2L85.7,16.6V137.4h-9V0H86.9l55.4,126,55-126Z"/><path d="M328.9,64.1A47.59,47.59,0,0,1,348,83.4q6.9,12.6,6.9,29.6,0,17.2-6.9,29.8a47.59,47.59,0,0,1-19.1,19.3,59.79,59.79,0,0,1-55,0,48,48,0,0,1-19.2-19.4q-7-12.7-7-29.7t7-29.6a48.13,48.13,0,0,1,19.2-19.3,59.79,59.79,0,0,1,55,0Zm-49.5,6.5a39.72,39.72,0,0,0-16.3,15.9q-6.21,10.69-6.2,26.5t6.2,26.6a39.55,39.55,0,0,0,16.3,16,48.72,48.72,0,0,0,43.8,0,39.66,39.66,0,0,0,16.3-16q6.19-10.8,6.2-26.6t-6.1-26.5a39.2,39.2,0,0,0-16.2-15.9,49.14,49.14,0,0,0-44,0Z"/><path d="M408.9,87v69.8q0,13,4.6,17.7t16.2,4.7h11.4v8.2H428.7q-15,0-21.9-7t-6.9-23.6V87H382.7V78.8h17.2V51.2h9V78.8h32.2V87Z"/><path d="M477,10.7a7.45,7.45,0,0,1,5.5-2.1,7.77,7.77,0,0,1,5.6,2.1,7,7,0,0,1,2.2,5.3,7.24,7.24,0,0,1-2.2,5.5,7.77,7.77,0,0,1-5.6,2.1,7.21,7.21,0,0,1-7.6-7.6A7.19,7.19,0,0,1,477,10.7Zm10.1,38.1V157.4h-9V48.8Z"/><path d="M608.49,24.1a47.59,47.59,0,0,1,19.1,19.3q6.9,12.6,6.9,29.6,0,17.2-6.9,29.8a47.59,47.59,0,0,1-19.1,19.3,59.79,59.79,0,0,1-55,0,48.08,48.08,0,0,1-19.2-19.4q-7-12.7-7-29.7t7-29.6a48.26,48.26,0,0,1,19.2-19.3,59.79,59.79,0,0,1,55,0ZM559,30.6a39.78,39.78,0,0,0-16.3,15.9q-6.2,10.7-6.2,26.5t6.2,26.6a39.61,39.61,0,0,0,16.3,16,48.72,48.72,0,0,0,43.8,0,39.61,39.61,0,0,0,16.3-16q6.2-10.8,6.2-26.6t-6.1-26.5A39.2,39.2,0,0,0,603,30.6a49.14,49.14,0,0,0-44,0Z"/><path d="M756.29,58.6q12,12,12,35.4v63.4h-9v-63q0-19.61-9.8-29.9t-26.8-10.3q-17.6,0-28.3,11.5t-10.7,33.9v57.8h-9V48.8h9V77.4q4-15.2,15.3-23a44.8,44.8,0,0,1,26.1-7.8Q744.29,46.6,756.29,58.6Z"/><path d="M114.2,164.6q17.2,13,21.4,35.2H99.4a27.92,27.92,0,0,0-11-12.1q-7.4-4.5-17.8-4.5-16.2,0-26,10.9t-9.8,29.5q0,20.21,10.3,31t29.3,10.8a35.36,35.36,0,0,0,21.4-6.7q9.2-6.7,13-19.1H65.6V215h71.8v33.8a69,69,0,0,1-12.8,23A65.92,65.92,0,0,1,102.1,289q-13.69,6.6-31.3,6.6-21.4,0-37.4-9.1A62.36,62.36,0,0,1,8.7,261Q0,244.61,0,223.6t8.7-37.4a62.56,62.56,0,0,1,24.6-25.5q15.9-9.1,37.1-9.1Q97,151.6,114.2,164.6Z"/><path d="M194.9,187.6a42.1,42.1,0,0,1,21.9-6v36.6H207q-13.6,0-21.1,5.8t-7.5,19.6v50.8H144.2V182.8h34.2v21A48.41,48.41,0,0,1,194.9,187.6Z"/><path d="M283.2,197.2A34.93,34.93,0,0,1,296.8,213V192.8h34V304.4h-34V284.2A34.93,34.93,0,0,1,283.2,300q-9.21,5.81-22,5.8a45.18,45.18,0,0,1-24.7-6.9Q225.59,292,219.3,279T213,248.6q0-17.59,6.3-30.5a47.3,47.3,0,0,1,17.2-19.8,45.18,45.18,0,0,1,24.7-6.9Q274,191.4,283.2,197.2Zm-28.7,31.4q-6.7,7.2-6.7,20t6.7,20q6.69,7.2,17.7,7.2,10.8,0,17.7-7.4t6.9-19.8q0-12.6-6.9-19.9t-17.7-7.3Q261.19,221.4,254.5,228.6Z"/><path d="M436.3,218.3a47.37,47.37,0,0,1,17.2,19.8q6.3,12.9,6.3,30.5,0,17.4-6.3,30.4t-17.2,19.9a45.21,45.21,0,0,1-24.7,6.9q-12.81,0-22-5.8a33.64,33.64,0,0,1-13.4-15.8v73.4H342V212.8h34.2V233a33.64,33.64,0,0,1,13.4-15.8q9.19-5.8,22-5.8A45.21,45.21,0,0,1,436.3,218.3Zm-53.4,30.4Q376,256,376,268.6q0,12.4,6.9,19.8t17.7,7.4q11,0,17.7-7.2t6.7-20q0-12.8-6.7-20t-17.7-7.2Q389.8,241.4,382.9,248.7Z"/><path d="M566.5,214.4q11.29,12.79,11.3,35.2v64.8H543.6V253.6q0-11.21-5.9-17.5T522,229.8q-10.41,0-16.5,6.6t-6.1,18.8v59.2H465.2v-148h34.2v56.8a36.77,36.77,0,0,1,14.3-15.8q9.49-5.81,22.3-5.8Q555.2,201.6,566.5,214.4Z"/><path d="M590.39,138.5q5.61-5.1,14.8-5.1t14.8,5.1a16.67,16.67,0,0,1,5.6,12.9,16.45,16.45,0,0,1-5.6,12.7q-5.6,5.1-14.8,5.1t-14.8-5.1a16.48,16.48,0,0,1-5.6-12.7A16.7,16.7,0,0,1,590.39,138.5Zm31.8,44.3V294.4H588V182.8Z"/><path d="M720,193.3q14.6,11.89,18.4,32.7h-36.2a19.14,19.14,0,0,0-6.6-11.2q-5-4-12.6-4a18.29,18.29,0,0,0-14.8,7.1q-5.81,7.09-5.8,20.7t5.8,20.7a18.29,18.29,0,0,0,14.8,7.1q7.6,0,12.6-4a19.14,19.14,0,0,0,6.6-11.2h36.2Q734.6,272,720,283.9t-36.2,11.9q-16.39,0-29.1-6.9a49.26,49.26,0,0,1-19.9-19.9q-7.2-13-7.2-30.4,0-17.59,7.1-30.5a48.66,48.66,0,0,1,19.9-19.8q12.79-6.9,29.2-6.9Q705.39,181.4,720,193.3Z"/><path d="M818.29,182q12.71,10.6,15.9,28h-32a17.7,17.7,0,0,0-6.3-10.7,19.14,19.14,0,0,0-12.3-3.9q-5.8,0-8.8,2.5a8.72,8.72,0,0,0-3,7.1q0,5.2,5.5,7.8t17.3,5.2a171.56,171.56,0,0,1,21,6.1,34.62,34.62,0,0,1,14.2,10.1q6,7,6,18.8a28.8,28.8,0,0,1-5.2,17q-5.21,7.39-15,11.6t-23.2,4.2q-22.6,0-36.2-10t-16.6-28.6h33a14.85,14.85,0,0,0,6.1,11q5.29,3.8,13.7,3.8,5.8,0,8.8-2.7a9.1,9.1,0,0,0,3-7.1q0-5.8-5.5-8.3t-17.9-5.3a142.44,142.44,0,0,1-20.4-5.6,33.69,33.69,0,0,1-13.8-9.7q-5.8-6.7-5.8-18.3,0-15,11.4-24.3t32.2-9.3Q805.59,171.4,818.29,182Z"/></g></g></svg>